HIERARCHY
ROOT Hips
{
	OFFSET 0.00 0.00 0.00
	CHANNELS 6 Xposition Yposition Zposition Xrotation Yrotation Zrotation
	JOINT Spine
	{
		OFFSET 0.00000 1.72418 2.58627
		CHANNELS 3 Xrotation Yrotation Zrotation
		JOINT Spine1
		{
			OFFSET 0.00000 0.59880 3.39597
			CHANNELS 3 Xrotation Yrotation Zrotation
			JOINT Spine2
			{
				OFFSET 0.00000 0.30055 3.43524
				CHANNELS 3 Xrotation Yrotation Zrotation
				JOINT Spine3
				{
					OFFSET 0.00000 0.00000 3.44836
					CHANNELS 3 Xrotation Yrotation Zrotation
					JOINT Neck
					{
						OFFSET 0.00000 -1.29313 9.05195
						CHANNELS 3 Xrotation Yrotation Zrotation
						JOINT Head
						{
							OFFSET 0.00000 -0.82335 4.66946
							CHANNELS 3 Xrotation Yrotation Zrotation
							End Site
							{
								OFFSET 0.00000 0.00001 5.58203
							}
						}
					}
					JOINT RightShoulder
					{
						OFFSET -1.18828 -1.98046 6.41673
						CHANNELS 3 Xrotation Yrotation Zrotation
						JOINT RightArm
						{
							OFFSET -5.90180 0.00000 0.00000
							CHANNELS 3 Xrotation Yrotation Zrotation
							JOINT RightForeArm
							{
								OFFSET -11.45951 0.00000 0.00000
								CHANNELS 3 Xrotation Yrotation Zrotation
								JOINT RightHand
								{
									OFFSET -10.63451 0.00000 0.00000
									CHANNELS 3 Xrotation Yrotation Zrotation
									JOINT RightHandEnd
									{
										OFFSET -2.86944 0.00000 0.00000
										CHANNELS 3 Xrotation Yrotation Zrotation
										End Site
										{
											OFFSET -2.86944 0.00000 0.00000
										}
									}
									JOINT RightHandThumb1
									{
										OFFSET -1.14778 -1.91296 -0.76518
										CHANNELS 3 Yrotation Xrotation Zrotation
										End Site
										{
											OFFSET -2.77167 -0.74267 0.00000
										}
									}
								}
							}
						}
					}
					JOINT LeftShoulder
					{
						OFFSET 1.18828 -1.98046 6.41673
						CHANNELS 3 Xrotation Yrotation Zrotation
						JOINT LeftArm
						{
							OFFSET 5.90180 0.00000 0.00000
							CHANNELS 3 Xrotation Yrotation Zrotation
							JOINT LeftForeArm
							{
								OFFSET 11.45951 0.00000 0.00000
								CHANNELS 3 Xrotation Yrotation Zrotation
								JOINT LeftHand
								{
									OFFSET 10.63451 0.00000 0.00000
									CHANNELS 3 Xrotation Yrotation Zrotation
									JOINT LeftHandEnd
									{
										OFFSET 2.86944 0.00000 0.00000
										CHANNELS 3 Xrotation Yrotation Zrotation
										End Site
										{
											OFFSET 2.86944 0.00000 0.00000
										}
									}
									JOINT LeftHandThumb1
									{
										OFFSET 1.14778 -1.91296 -0.76518
										CHANNELS 3 Yrotation Xrotation Zrotation
										End Site
										{
											OFFSET 2.77167 -0.74267 0.00000
										}
									}
								}
							}
						}
					}
				}
			}
		}
	}
	JOINT RightUpLeg
	{
		OFFSET -3.52524 0.00000 -1.02984
		CHANNELS 3 Xrotation Yrotation Zrotation
		JOINT RightLeg
		{
			OFFSET 0.00001 0.00000 -17.80965
			CHANNELS 3 Xrotation Yrotation Zrotation
			JOINT RightFoot
			{
				OFFSET 0.00001 0.00000 -17.00908
				CHANNELS 3 Xrotation Yrotation Zrotation
				JOINT RightToeBase
				{
					OFFSET 0.00000 -5.55853 -2.02314
					CHANNELS 3 Xrotation Yrotation Zrotation
					End Site
					{
						OFFSET 0.00000 -2.85188 -0.00000
					}
				}
			}
		}
	}
	JOINT LeftUpLeg
	{
		OFFSET 3.52524 0.00000 -1.02984
		CHANNELS 3 Xrotation Yrotation Zrotation
		JOINT LeftLeg
		{
			OFFSET 0.00001 0.00000 -17.80965
			CHANNELS 3 Xrotation Yrotation Zrotation
			JOINT LeftFoot
			{
				OFFSET 0.00001 0.00000 -17.00908
				CHANNELS 3 Xrotation Yrotation Zrotation
				JOINT LeftToeBase
				{
					OFFSET 0.00000 -5.55853 -2.02314
					CHANNELS 3 Xrotation Yrotation Zrotation
					End Site
					{
						OFFSET 0.00000 -2.85188 -0.00000
					}
				}
			}
		}
	}
}
MOTION
Frames: 18
Frame Time: 0.008342
 0.8996 -100.2289 36.5261 1.4608 1.2157 -178.9010 -1.3478 1.0831 -0.4566 -0.3461 0.4807 -0.0049 0.7553 -0.4772 -0.9285 0.0933 -0.0832 0.0124 -1.7353 -1.4674 -1.3272 -0.8066 0.6336 -0.3443 0.8259 2.1512 0.5619 -2.4796 2.4928 6.0180 0.0000 0.0000 16.0695 -8.2240 16.9475 1.6072 -0.0000 -0.0000 -0.0000 0.0000 0.0000 0.0000 1.7738 -5.6618 -1.4312 -7.4302 1.1819 2.7221 -0.0000 -0.0000 -18.4447 -7.9540 -19.6477 -2.6576 0.0000 0.0000 -0.0000 -0.0000 -0.0000 0.0000 -0.6494 3.4243 -28.9882 14.8391 0.0000 0.0000 -14.1916 -0.3500 2.2872 -0.9631 0.0000 -0.0000 0.0031 -0.2510 15.3570 11.8799 0.0000 0.0000 -10.9162 3.4845 0.7068 -0.7520 0.0000 -0.0000
 0.9039 -100.2262 36.5260 1.4601 1.2185 -178.9019 -1.3498 1.0783 -0.4567 -0.3470 0.4821 -0.0031 0.7658 -0.4744 -0.9225 0.0962 -0.0820 0.0128 -1.7448 -1.4657 -1.3323 -0.8171 0.6443 -0.3661 0.8446 2.1536 0.5523 -2.4847 2.4884 6.0310 0.0000 0.0000 16.0818 -8.1885 16.9772 1.5880 -0.0000 -0.0000 0.0000 0.0000 -0.0000 0.0000 1.7796 -5.6709 -1.4408 -7.4110 1.1938 2.7139 -0.0000 -0.0000 -18.4394 -7.9339 -19.6793 -2.6653 0.0000 -0.0000 -0.0000 -0.0000 0.0000 -0.0000 -0.6536 3.4186 -28.9575 14.8511 0.0000 0.0000 -14.2000 -0.3402 2.2512 -0.9574 0.0000 -0.0000 0.0072 -0.2520 15.3379 11.8772 0.0000 0.0000 -10.9157 3.4802 0.7301 -0.7601 0.0000 -0.0000
 0.9097 -100.2224 36.5260 1.4592 1.2223 -178.9047 -1.3526 1.0735 -0.4564 -0.3486 0.4826 -0.0021 0.7806 -0.4698 -0.9145 0.0998 -0.0817 0.0133 -1.7554 -1.4604 -1.3372 -0.8288 0.6543 -0.3892 0.8662 2.1565 0.5443 -2.4888 2.4847 6.0450 0.0000 0.0000 16.0983 -8.1495 17.0104 1.5642 0.0000 -0.0000 -0.0000 0.0000 -0.0000 -0.0000 1.7884 -5.6811 -1.4503 -7.3864 1.2075 2.7037 -0.0000 -0.0000 -18.4337 -7.9103 -19.7196 -2.6722 -0.0000 -0.0000 -0.0000 0.0000 0.0000 0.0000 -0.6587 3.4114 -28.9172 14.8660 0.0000 0.0000 -14.2095 -0.3272 2.2056 -0.9556 0.0000 -0.0000 0.0134 -0.2537 15.3208 11.8728 0.0000 0.0000 -10.9135 3.4762 0.7545 -0.7718 0.0000 -0.0000
 0.9168 -100.2176 36.5261 1.4579 1.2276 -178.9099 -1.3562 1.0688 -0.4560 -0.3507 0.4822 -0.0016 0.7985 -0.4639 -0.9053 0.1045 -0.0813 0.0139 -1.7663 -1.4523 -1.3417 -0.8420 0.6629 -0.4117 0.8906 2.1605 0.5374 -2.4920 2.4807 6.0629 0.0000 0.0000 16.1158 -8.1082 17.0465 1.5383 -0.0000 0.0000 -0.0000 -0.0000 -0.0000 -0.0000 1.7988 -5.6927 -1.4606 -7.3553 1.2218 2.6949 -0.0000 -0.0000 -18.4303 -7.8838 -19.7667 -2.6764 0.0000 -0.0000 -0.0000 0.0000 -0.0000 0.0000 -0.6645 3.4032 -28.8684 14.8831 0.0000 0.0000 -14.2196 -0.3114 2.1523 -0.9570 0.0000 -0.0000 0.0220 -0.2555 15.3062 11.8665 0.0000 0.0000 -10.9093 3.4729 0.7798 -0.7862 0.0000 -0.0000
 0.9251 -100.2118 36.5261 1.4565 1.2345 -178.9172 -1.3597 1.0648 -0.4549 -0.3533 0.4811 -0.0014 0.8184 -0.4569 -0.8960 0.1104 -0.0805 0.0145 -1.7766 -1.4420 -1.3458 -0.8555 0.6699 -0.4316 0.9171 2.1650 0.5319 -2.4942 2.4770 6.0849 0.0000 0.0000 16.1336 -8.0655 17.0837 1.5116 0.0000 -0.0000 -0.0000 0.0000 -0.0000 -0.0000 1.8110 -5.7047 -1.4705 -7.3186 1.2347 2.6879 -0.0000 -0.0000 -18.4306 -7.8560 -19.8190 -2.6767 0.0000 -0.0000 -0.0000 0.0000 0.0000 0.0000 -0.6706 3.3947 -28.8137 14.9024 0.0000 0.0000 -14.2302 -0.2936 2.0938 -0.9621 0.0000 -0.0000 0.0329 -0.2574 15.2953 11.8582 0.0000 0.0000 -10.9028 3.4706 0.8048 -0.8029 0.0000 -0.0000
 0.9343 -100.2051 36.5263 1.4553 1.2431 -178.9264 -1.3628 1.0617 -0.4539 -0.3564 0.4794 -0.0018 0.8403 -0.4490 -0.8868 0.1170 -0.0793 0.0150 -1.7854 -1.4303 -1.3494 -0.8686 0.6747 -0.4478 0.9455 2.1697 0.5284 -2.4960 2.4738 6.1105 0.0000 0.0000 16.1504 -8.0255 17.1200 1.4860 0.0000 -0.0000 0.0000 0.0000 -0.0000 -0.0000 1.8252 -5.7165 -1.4795 -7.2764 1.2445 2.6837 -0.0000 -0.0000 -18.4357 -7.8237 -19.8747 -2.6714 0.0000 0.0000 -0.0000 -0.0000 -0.0000 0.0000 -0.6761 3.3864 -28.7562 14.9228 0.0000 0.0000 -14.2410 -0.2750 2.0329 -0.9712 0.0000 -0.0000 0.0465 -0.2588 15.2879 11.8479 0.0000 0.0000 -10.8937 3.4698 0.8293 -0.8221 0.0000 -0.0000
 0.9443 -100.1974 36.5264 1.4569 1.2539 -178.9371 -1.3630 1.0608 -0.4532 -0.3594 0.4764 -0.0022 0.8626 -0.4401 -0.8781 0.1242 -0.0777 0.0154 -1.7922 -1.4176 -1.3523 -0.8807 0.6772 -0.4588 0.9753 2.1757 0.5263 -2.4971 2.4705 6.1402 0.0000 0.0000 16.1651 -7.9883 17.1545 1.4632 -0.0000 0.0000 -0.0000 -0.0000 0.0000 -0.0000 1.8427 -5.7280 -1.4850 -7.2318 1.2514 2.6797 -0.0000 -0.0000 -18.4453 -7.7901 -19.9323 -2.6601 0.0000 -0.0000 -0.0000 0.0000 -0.0000 0.0000 -0.6776 3.3795 -28.7003 14.9433 0.0000 0.0000 -14.2519 -0.2569 1.9739 -0.9833 0.0000 -0.0000 0.0657 -0.2588 15.2836 11.8349 0.0000 0.0000 -10.8816 3.4707 0.8532 -0.8430 0.0000 -0.0000
 0.9549 -100.1894 36.5266 1.4546 1.2625 -178.9490 -1.3669 1.0562 -0.4527 -0.3622 0.4772 -0.0011 0.8855 -0.4337 -0.8725 0.1316 -0.0755 0.0161 -1.7956 -1.4051 -1.3545 -0.8923 0.6773 -0.4642 1.0050 2.1801 0.5269 -2.4980 2.4699 6.1715 0.0000 0.0000 16.1787 -7.9561 17.1855 1.4434 -0.0000 0.0000 -0.0000 0.0000 0.0000 0.0000 1.8611 -5.7362 -1.4896 -7.1842 1.2507 2.6801 -0.0000 -0.0000 -18.4614 -7.7552 -19.9883 -2.6428 -0.0000 0.0000 -0.0000 0.0000 -0.0000 0.0000 -0.6817 3.3689 -28.6444 14.9615 0.0000 0.0000 -14.2604 -0.2395 1.9152 -0.9985 0.0000 -0.0000 0.0806 -0.2630 15.2866 11.8241 0.0000 0.0000 -10.8697 3.4734 0.8717 -0.8647 0.0000 -0.0000
 0.9656 -100.1807 36.5269 1.4564 1.2731 -178.9616 -1.3660 1.0551 -0.4527 -0.3652 0.4751 -0.0014 0.9080 -0.4251 -0.8666 0.1387 -0.0734 0.0166 -1.7959 -1.3933 -1.3565 -0.9017 0.6755 -0.4645 1.0353 2.1856 0.5285 -2.4989 2.4691 6.2048 0.0000 0.0000 16.1904 -7.9286 17.2134 1.4280 0.0000 -0.0000 -0.0000 -0.0000 0.0000 -0.0000 1.8813 -5.7436 -1.4907 -7.1370 1.2462 2.6813 -0.0000 -0.0000 -18.4823 -7.7197 -20.0431 -2.6196 -0.0000 0.0000 0.0000 0.0000 0.0000 -0.0000 -0.6797 3.3606 -28.5955 14.9779 0.0000 0.0000 -14.2687 -0.2246 1.8636 -1.0151 0.0000 -0.0000 0.1019 -0.2653 15.2916 11.8106 0.0000 0.0000 -10.8553 3.4782 0.8895 -0.8870 0.0000 -0.0000
 0.9765 -100.1720 36.5272 1.4528 1.2810 -178.9741 -1.3705 1.0507 -0.4535 -0.3670 0.4769 0.0001 0.9293 -0.4201 -0.8644 0.1460 -0.0702 0.0170 -1.7932 -1.3837 -1.3573 -0.9098 0.6722 -0.4595 1.0651 2.1899 0.5310 -2.5007 2.4699 6.2407 0.0000 0.0000 16.2003 -7.9082 17.2386 1.4170 0.0000 -0.0000 -0.0000 -0.0000 -0.0000 -0.0000 1.9044 -5.7467 -1.4853 -7.0939 1.2345 2.6799 -0.0000 -0.0000 -18.5065 -7.6873 -20.0947 -2.5928 -0.0000 -0.0000 -0.0000 -0.0000 -0.0000 0.0000 -0.6820 3.3493 -28.5512 14.9917 0.0000 0.0000 -14.2746 -0.2118 1.8163 -1.0328 0.0000 -0.0000 0.1158 -0.2715 15.3008 11.8011 0.0000 0.0000 -10.8421 3.4845 0.9038 -0.9089 0.0000 -0.0000
 0.9872 -100.1630 36.5276 1.4557 1.2886 -178.9865 -1.3666 1.0483 -0.4536 -0.3694 0.4756 -0.0005 0.9480 -0.4129 -0.8624 0.1530 -0.0679 0.0169 -1.7866 -1.3759 -1.3572 -0.9152 0.6673 -0.4509 1.0955 2.1954 0.5341 -2.5038 2.4701 6.2761 0.0000 0.0000 16.2111 -7.8922 17.2615 1.4086 0.0000 -0.0000 -0.0000 -0.0000 0.0000 -0.0000 1.9280 -5.7486 -1.4784 -7.0571 1.2199 2.6818 -0.0000 -0.0000 -18.5357 -7.6565 -20.1411 -2.5639 0.0000 -0.0000 -0.0000 0.0000 0.0000 0.0000 -0.6744 3.3383 -28.5185 15.0011 0.0000 0.0000 -14.2790 -0.2029 1.7802 -1.0506 0.0000 -0.0000 0.1377 -0.2778 15.3127 11.7900 0.0000 0.0000 -10.8280 3.4930 0.9155 -0.9303 0.0000 -0.0000
 0.9976 -100.1539 36.5281 1.4587 1.2942 -178.9986 -1.3622 1.0441 -0.4546 -0.3709 0.4766 0.0004 0.9645 -0.4085 -0.8621 0.1593 -0.0651 0.0166 -1.7768 -1.3701 -1.3563 -0.9183 0.6616 -0.4400 1.1250 2.1991 0.5380 -2.5064 2.4731 6.3091 0.0000 0.0000 16.2243 -7.8813 17.2823 1.4029 -0.0000 0.0000 0.0000 -0.0000 -0.0000 0.0000 1.9539 -5.7454 -1.4668 -7.0272 1.1988 2.6791 -0.0000 -0.0000 -18.5643 -7.6350 -20.1819 -2.5379 -0.0000 -0.0000 -0.0000 -0.0000 -0.0000 -0.0000 -0.6645 3.3256 -28.4938 15.0064 0.0000 0.0000 -14.2813 -0.1970 1.7518 -1.0678 0.0000 -0.0000 0.1586 -0.2867 15.3277 11.7814 0.0000 0.0000 -10.8150 3.5033 0.9243 -0.9506 0.0000 -0.0000
 1.0075 -100.1453 36.5286 1.4547 1.2998 -179.0104 -1.3644 1.0416 -0.4551 -0.3719 0.4778 0.0006 0.9804 -0.4055 -0.8629 0.1651 -0.0626 0.0162 -1.7655 -1.3664 -1.3540 -0.9200 0.6553 -0.4280 1.1540 2.2034 0.5408 -2.5113 2.4753 6.3420 0.0000 0.0000 16.2405 -7.8719 17.3035 1.3982 0.0000 -0.0000 -0.0000 0.0000 -0.0000 0.0000 1.9782 -5.7418 -1.4517 -7.0108 1.1804 2.6757 -0.0000 -0.0000 -18.5948 -7.6189 -20.2190 -2.5151 0.0000 0.0000 -0.0000 0.0000 0.0000 0.0000 -0.6624 3.3146 -28.4745 15.0124 0.0000 0.0000 -14.2837 -0.1931 1.7291 -1.0836 0.0000 -0.0000 0.1700 -0.2948 15.3393 11.7755 0.0000 0.0000 -10.8027 3.5142 0.9367 -0.9700 0.0000 -0.0000
 1.0172 -100.1366 36.5292 1.4556 1.3008 -179.0210 -1.3607 1.0361 -0.4567 -0.3729 0.4780 0.0006 0.9938 -0.4027 -0.8638 0.1704 -0.0607 0.0155 -1.7522 -1.3645 -1.3507 -0.9189 0.6487 -0.4163 1.1828 2.2070 0.5428 -2.5154 2.4783 6.3715 0.0000 0.0000 16.2625 -7.8624 17.3250 1.3934 0.0000 -0.0000 -0.0000 0.0000 -0.0000 -0.0000 2.0025 -5.7373 -1.4353 -7.0076 1.1640 2.6706 -0.0000 -0.0000 -18.6242 -7.6116 -20.2506 -2.4995 -0.0000 -0.0000 0.0000 0.0000 0.0000 0.0000 -0.6516 3.2982 -28.4641 15.0115 0.0000 0.0000 -14.2824 -0.1919 1.7139 -1.0983 0.0000 -0.0000 0.1850 -0.3082 15.3533 11.7728 0.0000 0.0000 -10.7932 3.5263 0.9459 -0.9881 0.0000 -0.0000
 1.0264 -100.1282 36.5299 1.4549 1.3024 -179.0317 -1.3580 1.0325 -0.4574 -0.3732 0.4790 0.0006 1.0056 -0.4022 -0.8651 0.1750 -0.0591 0.0149 -1.7373 -1.3630 -1.3461 -0.9164 0.6415 -0.4064 1.2107 2.2098 0.5450 -2.5179 2.4829 6.3955 0.0000 0.0000 16.2924 -7.8514 17.3471 1.3869 0.0000 -0.0000 0.0000 -0.0000 -0.0000 0.0000 2.0232 -5.7311 -1.4210 -7.0179 1.1510 2.6677 -0.0000 -0.0000 -18.6535 -7.6124 -20.2767 -2.4929 0.0000 -0.0000 -0.0000 -0.0000 0.0000 0.0000 -0.6425 3.2840 -28.4587 15.0107 0.0000 0.0000 -14.2813 -0.1922 1.7044 -1.1113 0.0000 -0.0000 0.1975 -0.3199 15.3649 11.7711 0.0000 0.0000 -10.7837 3.5387 0.9583 -1.0055 0.0000 -0.0000
 1.0354 -100.1199 36.5307 1.4536 1.3020 -179.0423 -1.3553 1.0288 -0.4580 -0.3729 0.4790 0.0000 1.0162 -0.4030 -0.8662 0.1793 -0.0579 0.0143 -1.7228 -1.3620 -1.3397 -0.9123 0.6341 -0.3979 1.2381 2.2118 0.5460 -2.5180 2.4884 6.4165 0.0000 0.0000 16.3296 -7.8330 17.3719 1.3793 0.0000 -0.0000 0.0000 -0.0000 -0.0000 0.0000 2.0418 -5.7262 -1.4060 -7.0442 1.1466 2.6630 -0.0000 -0.0000 -18.6806 -7.6186 -20.2997 -2.4966 -0.0000 -0.0000 -0.0000 -0.0000 -0.0000 -0.0000 -0.6334 3.2683 -28.4563 15.0086 0.0000 0.0000 -14.2789 -0.1934 1.6981 -1.1232 0.0000 -0.0000 0.2079 -0.3332 15.3745 11.7719 0.0000 0.0000 -10.7759 3.5508 0.9733 -1.0220 0.0000 -0.0000
 1.0440 -100.1118 36.5317 1.4523 1.3004 -179.0529 -1.3514 1.0244 -0.4588 -0.3732 0.4793 -0.0001 1.0260 -0.4047 -0.8666 0.1830 -0.0571 0.0133 -1.7081 -1.3609 -1.3321 -0.9075 0.6262 -0.3915 1.2648 2.2110 0.5465 -2.5142 2.4967 6.4323 0.0000 0.0000 16.3759 -7.8085 17.3982 1.3709 -0.0000 -0.0000 0.0000 -0.0000 -0.0000 0.0000 2.0568 -5.7209 -1.3942 -7.0838 1.1490 2.6602 -0.0000 -0.0000 -18.7063 -7.6286 -20.3196 -2.5101 0.0000 -0.0000 -0.0000 0.0000 0.0000 -0.0000 -0.6241 3.2517 -28.4560 15.0054 0.0000 0.0000 -14.2756 -0.1949 1.6939 -1.1342 0.0000 -0.0000 0.2169 -0.3472 15.3817 11.7749 0.0000 0.0000 -10.7692 3.5622 0.9912 -1.0382 0.0000 -0.0000
 1.0526 -100.1038 36.5327 1.4505 1.2982 -179.0638 -1.3471 1.0202 -0.4595 -0.3734 0.4791 -0.0003 1.0353 -0.4069 -0.8662 0.1865 -0.0567 0.0123 -1.6940 -1.3596 -1.3236 -0.9020 0.6176 -0.3867 1.2908 2.2070 0.5463 -2.5055 2.5077 6.4436 0.0000 0.0000 16.4314 -7.7702 17.4268 1.3618 0.0000 -0.0000 0.0000 -0.0000 0.0000 0.0000 2.0686 -5.7160 -1.3851 -7.1363 1.1593 2.6588 -0.0000 -0.0000 -18.7305 -7.6376 -20.3381 -2.5326 0.0000 -0.0000 -0.0000 -0.0000 -0.0000 0.0000 -0.6153 3.2346 -28.4552 15.0024 0.0000 0.0000 -14.2717 -0.1962 1.6898 -1.1446 0.0000 -0.0000 0.2244 -0.3614 15.3864 11.7796 0.0000 0.0000 -10.7630 3.5725 1.0127 -1.0544 0.0000 -0.0000
